<?xml version="1.0" standalone="no"?>
<!DOCTYPE svg PUBLIC "-//W3C//DTD SVG 20010904//EN"
 "http://www.w3.org/TR/2001/REC-SVG-20010904/DTD/svg10.dtd">
<svg version="1.0" xmlns="http://www.w3.org/2000/svg"
 width="639.000000pt" height="230.000000pt" viewBox="0 0 639.000000 230.000000"
 preserveAspectRatio="xMidYMid meet">

<g transform="translate(0.000000,230.000000) scale(0.100000,-0.100000)"
fill="#000000" stroke="none">
<path d="M3286 2040 l-217 -250 37 -45 c20 -25 35 -47 33 -49 -2 -2 -22 -13
-45 -24 -23 -12 -62 -37 -89 -57 l-47 -37 -32 29 c-32 31 -299 267 -327 290
-15 13 -23 2 -80 -106 -35 -67 -66 -121 -70 -121 -3 0 -4 52 -1 115 3 63 1
115 -3 115 -7 0 -268 -82 -514 -162 l-64 -21 6 -150 c4 -82 8 -152 11 -154 2
-2 23 1 46 7 23 6 44 9 47 6 6 -6 22 -149 17 -155 -1 -1 -33 5 -71 14 -119 30
-277 5 -375 -60 -20 -14 -39 -25 -40 -25 -2 0 -3 51 -3 113 0 111 -1 115 -38
189 -63 128 -188 232 -337 279 -83 27 -310 37 -428 20 -179 -26 -402 -110
-580 -218 -59 -36 -108 -66 -110 -68 -5 -5 8 -29 150 -268 l129 -217 50 25
c27 14 53 24 58 21 4 -3 115 -246 247 -540 186 -417 242 -534 254 -530 8 4
105 35 214 70 110 35 201 65 202 67 2 1 -19 88 -47 192 -27 105 -61 236 -76
293 l-26 103 49 44 49 43 7 -71 c25 -232 160 -374 383 -402 103 -13 260 37
353 113 30 24 56 42 58 39 2 -2 7 -45 10 -95 4 -51 7 -92 8 -92 7 0 298 43
346 50 l65 11 -3 176 c-2 97 1 180 6 185 5 5 186 -79 436 -202 235 -115 429
-210 432 -210 2 0 4 92 4 205 l0 204 38 6 c75 13 184 46 249 75 36 17 69 28
72 25 3 -3 -3 -51 -12 -107 -10 -55 -16 -102 -15 -103 2 -2 104 -19 227 -39
174 -28 226 -34 232 -24 4 7 11 41 15 75 3 35 10 66 15 68 4 3 33 -42 64 -100
32 -59 59 -104 62 -102 2 3 19 33 38 68 21 39 36 58 39 49 2 -8 10 -62 18
-120 l13 -104 100 -17 c55 -10 167 -29 248 -43 82 -14 154 -26 161 -26 11 0
11 13 0 73 -7 39 -13 77 -13 83 -1 7 30 13 77 17 42 3 104 15 136 27 33 11 61
20 63 20 4 0 -5 -131 -11 -175 0 -5 78 -21 174 -35 l175 -25 5 -75 5 -74 178
-55 c97 -30 179 -52 181 -50 10 12 477 1431 472 1436 -13 13 -481 121 -487
112 -3 -6 -14 -46 -23 -90 -9 -43 -21 -79 -25 -79 -5 0 -16 39 -26 88 -21 109
-24 115 -66 124 -133 29 -489 107 -511 113 l-28 7 0 -160 0 -160 45 -11 c41
-10 45 -14 45 -41 0 -35 1 -35 -70 -10 -66 23 -191 26 -267 6 -29 -8 -78 -28
-109 -45 -32 -17 -60 -29 -62 -26 -3 3 -11 42 -18 87 -38 248 -65 416 -70 441
l-6 27 -194 0 -194 0 0 -29 c0 -17 -6 -31 -16 -35 -9 -3 -103 -6 -209 -6
l-193 0 -6 -27 c-3 -16 -13 -75 -22 -133 -9 -58 -18 -108 -20 -112 -3 -4 -35
24 -72 61 -92 94 -234 161 -342 161 -17 0 -29 4 -25 9 3 5 80 49 171 97 120
63 163 91 159 102 -5 13 -209 317 -225 335 -4 4 -105 -105 -224 -243z m245 43
c23 -32 54 -73 67 -90 l24 -33 -185 -90 c-101 -49 -187 -90 -190 -90 -4 0 -11
9 -17 20 -9 17 7 41 122 180 73 88 133 160 134 160 1 0 21 -26 45 -57z m1083
-332 c3 -5 24 -126 46 -271 l40 -262 -29 -41 c-76 -112 -106 -210 -98 -321 7
-95 20 -133 68 -205 28 -42 60 -73 104 -102 48 -32 65 -49 69 -72 3 -17 4 -32
1 -35 -2 -2 -69 6 -149 18 l-144 22 -11 62 c-5 33 -22 145 -38 249 -15 103
-30 187 -33 187 -3 0 -27 -59 -54 -130 -27 -72 -51 -130 -53 -130 -2 0 -22 38
-44 85 -21 47 -58 124 -80 173 l-42 87 -32 -197 c-17 -109 -34 -200 -37 -203
-6 -7 -259 35 -270 44 -4 3 1 57 11 120 l19 113 56 57 c31 31 56 60 56 63 0 4
-18 24 -40 45 l-39 38 47 275 47 275 138 3 c135 3 137 2 146 -20 6 -13 22 -94
37 -180 15 -87 29 -156 31 -154 3 3 38 196 63 344 5 29 12 57 15 62 8 12 192
13 199 1z m-2269 -162 c11 -223 5 -218 102 -81 45 64 103 145 128 180 l46 63
127 -121 c70 -67 127 -126 127 -130 0 -4 -78 -90 -172 -190 -95 -101 -173
-185 -173 -189 0 -3 74 -35 165 -71 161 -63 165 -65 195 -112 60 -92 162 -159
295 -193 l80 -20 3 -110 c1 -60 0 -115 -2 -122 -4 -9 -130 49 -436 202 l-430
215 0 -224 0 -224 -27 -6 c-61 -12 -195 -27 -200 -22 -3 3 -6 51 -7 108 -1 93
2 109 28 168 60 136 43 300 -45 425 l-42 60 -13 150 c-7 83 -13 165 -14 184 0
33 0 33 -37 26 -69 -14 -68 -14 -68 39 l0 49 175 52 c96 29 178 50 181 49 4
-2 10 -72 14 -155z m-1310 100 c132 -19 256 -101 325 -215 34 -57 35 -61 35
-164 0 -105 0 -107 -43 -193 -54 -110 -122 -191 -227 -274 -68 -53 -82 -69
-77 -86 2 -12 33 -132 68 -266 35 -134 64 -252 64 -262 0 -14 -25 -26 -116
-54 -64 -20 -118 -35 -120 -32 -2 2 -112 246 -245 543 -133 296 -243 540 -244
542 -2 2 -30 -10 -62 -27 l-60 -30 -83 141 c-45 77 -83 147 -84 155 -2 33 258
156 422 199 155 40 279 46 447 23z m2448 -64 c82 -17 152 -54 203 -106 l37
-38 -119 -127 c-65 -69 -146 -156 -179 -192 l-60 -65 52 6 c62 7 120 35 173
84 l40 35 43 -37 c110 -98 138 -128 133 -140 -8 -21 -105 -94 -166 -125 -243
-123 -486 -108 -629 39 -71 73 -95 140 -95 261 0 86 2 101 31 161 59 120 183
211 334 244 83 18 120 18 202 0z m2037 -46 c91 -17 168 -35 172 -38 3 -3 25
-94 47 -201 65 -304 84 -390 87 -387 1 1 30 119 64 262 34 143 63 261 65 263
2 3 288 -58 293 -63 2 -2 -89 -285 -203 -630 -145 -439 -210 -625 -219 -622
-7 3 -53 17 -103 32 l-90 27 -6 166 c-4 91 -7 222 -7 291 0 69 -3 151 -7 181
l-6 55 -17 -90 c-9 -49 -30 -166 -46 -259 l-29 -168 -55 6 c-30 4 -81 11 -114
18 l-59 11 7 81 c6 81 6 82 55 135 166 180 189 447 52 604 l-33 37 7 99 7 99
-41 13 c-39 11 -41 14 -41 50 0 54 9 71 34 66 11 -3 95 -20 186 -38z m-1698
-211 c-3 -24 -10 -65 -16 -92 l-11 -50 -38 33 c-20 18 -37 37 -37 42 0 12 90
109 100 109 5 0 6 -19 2 -42z m1391 -88 c61 -23 127 -82 159 -143 20 -36 23
-57 23 -142 0 -92 -3 -105 -32 -165 -57 -117 -159 -203 -287 -242 -252 -77
-474 139 -398 388 33 109 91 187 190 256 97 67 239 87 345 48z m-2401 -95 c2
-41 0 -75 -4 -75 -9 0 -111 40 -117 45 -4 5 101 104 111 105 3 0 8 -34 10 -75z
m-906 20 c117 -34 192 -113 221 -231 31 -126 -11 -263 -114 -375 -165 -177
-408 -203 -553 -59 -69 70 -93 138 -88 252 4 75 9 96 41 161 95 192 316 305
493 252z"/>
<path d="M911 1346 c-19 -7 -36 -17 -38 -22 -3 -10 112 -392 121 -401 6 -7 65
35 115 81 109 101 105 276 -9 334 -50 25 -132 29 -189 8z m171 -96 c27 -28 30
-36 25 -76 -5 -48 -53 -132 -68 -117 -8 8 -69 196 -69 214 0 5 18 9 41 9 32 0
47 -6 71 -30z"/>
<path d="M3266 1458 c-22 -6 -57 -28 -81 -52 -65 -62 -82 -144 -46 -221 16
-35 55 -85 66 -85 2 0 54 57 116 128 62 70 122 138 133 150 l21 24 -29 23
c-28 22 -98 46 -128 44 -7 -1 -30 -6 -52 -11z m99 -68 c6 -9 -43 -70 -142
-180 -12 -13 -15 -13 -23 0 -16 25 -11 93 9 126 10 16 34 38 52 47 38 19 95
22 104 7z"/>
<path d="M4962 1199 c-60 -30 -86 -70 -90 -144 -3 -50 0 -66 20 -95 83 -123
280 -113 334 17 16 38 19 119 4 128 -5 3 -10 0 -10 -9 0 -8 -12 -28 -26 -45
-65 -78 -204 -33 -204 66 1 41 11 59 50 86 l24 17 -29 0 c-17 0 -49 -10 -73
-21z"/>
<path d="M1745 1121 c-44 -11 -69 -26 -102 -64 -97 -110 -8 -277 147 -277 120
0 209 102 185 211 l-7 33 -19 -37 c-23 -44 -64 -67 -120 -67 -33 0 -47 6 -75
34 -50 50 -44 104 14 153 28 24 26 25 -23 14z"/>
<path d="M6000 150 c0 -5 5 -10 10 -10 6 0 10 5 10 10 0 6 -4 10 -10 10 -5 0
-10 -4 -10 -10z"/>
<path d="M6041 123 c1 -18 3 -21 6 -10 2 9 9 15 14 12 5 -3 6 1 3 9 -10 26
-24 18 -23 -11z"/>
<path d="M6086 134 c-3 -8 -2 -12 3 -9 5 3 12 -3 14 -12 3 -11 5 -8 6 10 1 29
-13 37 -23 11z"/>
</g>
</svg>
